<svg xmlns="http://www.w3.org/2000/svg" width="400" height="400" viewBox="0 0 400 400">
  <rect width="400" height="400" fill="#14141c"/>
  <rect x="10" y="10" width="380" height="380" rx="14" fill="none" stroke="#8b5cf6" stroke-width="3"/>
  <path d="M28 28 L28 60 M28 28 L60 28" stroke="#4ade80" stroke-width="3" fill="none"/>
  <path d="M372 28 L372 60 M372 28 L340 28" stroke="#4ade80" stroke-width="3" fill="none"/>
  <path d="M28 372 L28 340 M28 372 L60 372" stroke="#4ade80" stroke-width="3" fill="none"/>
  <path d="M372 372 L372 340 M372 372 L340 372" stroke="#4ade80" stroke-width="3" fill="none"/>
  <rect x="120" y="200" width="160" height="55" rx="10" fill="#1d1d29" stroke="#8b5cf6" stroke-width="2"/>
  <circle cx="200" cy="170" r="14" fill="#4ade80"/>
  <rect x="196" y="180" width="8" height="35" fill="#9ca3af"/>
  <circle cx="250" cy="225" r="9" fill="#8b5cf6"/>
  <circle cx="150" cy="225" r="9" fill="#8b5cf6"/>
  <text x="200" y="300" text-anchor="middle" fill="#f0f0f5" font-family="monospace" font-size="18" font-weight="bold" letter-spacing="1">ARCADE STICK</text>
</svg>
